<svg width="128" height="128" xmlns="http://www.w3.org/2000/svg">

 <g>
  <title>Layer 1</title>
  <path stroke-dasharray="2,2" d="m29,30.5c0,1 0,2 0,3c0,1 0.45951,2.0535 0,4c-0.51374,2.17625 -1,4 -1,6c0,2 -1,5 -1,7c0,2 0,3 0,5c0,2 0,3 0,5c0,1 0,2 0,3c0,1 0,2 0,3c0,1 0,2 0,3l0,1" id="svg_1" stroke="#000" fill="none"/>
  <path d="m59,56.5c1,0 1.87856,0.49346 5,1c3.94835,0.64073 10.01704,0.4124 15,0c6.06203,-0.50171 10.03746,-1.38908 15,-2c4.09222,-0.50377 6.69344,-1.45881 8,-2c0.92388,-0.38268 0,0 -1,0c-4,0 -8.50424,0.03551 -13,3c-3.54193,2.33554 -7.22273,4.72399 -11,8c-3.20512,2.77979 -5.20681,5.81266 -7,8c-2.28588,2.78832 -2,4 -1,4c1,0 1.07612,-0.61732 2,-1c1.30656,-0.5412 3.45049,-2.45049 6,-5c2.54951,-2.54951 5.38074,-5.52221 8,-8c3.63227,-3.43608 4.69255,-6.18601 6,-8c0.8269,-1.14727 1.70711,-2.29289 1,-3c-1.41422,-1.41422 -6,-1 -10,-1c-5,0 -10,1 -16,2c-6,1 -12.06134,2.82462 -18,5c-5.05659,1.85227 -9.70546,4.34619 -12,6c-1.81399,1.30745 -1.92388,1.61732 -1,2c1.30656,0.5412 3,1 7,1c5,0 9.34507,0.08127 14,-2c4.56453,-2.04085 7.22021,-4.79488 10,-8c3.27601,-3.77727 4.51945,-6.03874 5,-9c0.50654,-3.12144 1.38268,-5.07612 1,-6c-0.5412,-1.30656 -2.93414,-2.14429 -5,-3c-2.92156,-1.21015 -6.01947,-1.39415 -10,-1c-5.0742,0.50245 -9,3 -13,6c-4,3 -7.11214,5.9183 -10,10c-2.08247,2.94336 -3,6 -3,8c0,2 0.07612,3.61732 1,4c1.30656,0.5412 3,2 6,2c3,0 7.19577,0.35114 11,-2c4.25325,-2.62865 8.22885,-4.72962 13,-9c4.21508,-3.77268 7.8819,-8.07278 11,-13c1.92806,-3.04673 4.5412,-4.69344 4,-6c-0.38268,-0.92388 -4.10886,-0.8008 -7,0c-5.61938,1.55648 -9.46447,4.46447 -13,8c-3.53553,3.53553 -7.28859,7.86829 -9,12c-1.21015,2.92156 -2,5 -2,7c0,1 0.02675,1.77025 1,2c2.17625,0.51374 5.107,1.91901 9,1c4.3525,-1.02749 8.22273,-3.72399 12,-7c4.27349,-3.70638 6.75532,-9.132 9,-13c1.80972,-3.11848 2,-7 2,-9c0,-2 -1,-3 -3,-3c-3,0 -7.3054,-0.63833 -12,2c-4.35882,2.44963 -8.5187,5.54124 -12,10c-3.58844,4.59599 -6.64886,9.19577 -9,13c-2.62865,4.25326 -2.85195,7.22836 -4,10c-0.54119,1.30656 -1.70711,2.29289 -1,3c0.70711,0.70711 2.82375,0.48626 5,1c1.9465,0.4595 6,0 9,-2c3,-2 7,-5 11,-9c4,-4 8.11214,-7.9183 11,-12c2.08247,-2.94336 4,-5 3,-5c-1,0 -3.22273,2.72399 -7,6c-4.27349,3.70638 -8.73115,9.28415 -14,14c-4.77115,4.27038 -9.90654,9.14387 -16,13c-4.92722,3.1181 -8.76108,6.41589 -12,8c-2.84072,1.38935 -4.16018,1.98709 -4,1c0.50654,-3.12144 2.25802,-7.90437 4,-13c2.35496,-6.8887 4.83468,-14.08555 8,-20c3.80424,-7.10829 6.41156,-13.40401 10,-18c3.4813,-4.45876 7.90779,-6.49623 12,-7c4.96254,-0.61092 10.40401,0.41156 15,4c4.45876,3.4813 9.38055,7.76305 13,14c3.36703,5.80199 6.49622,10.90779 7,15c0.61092,4.96254 1.14805,8.22836 0,11c-1.62359,3.91969 -4.97734,5.09544 -9,6c-4.97479,1.11866 -10,1 -16,1c-7,0 -13,-1 -18,-2c-5,-1 -8.34619,-1.70546 -10,-4c-1.30745,-1.814 -1.64073,-5.05165 -1,-9c1.01308,-6.24289 6.14795,-11.69496 12,-18c5.31321,-5.72449 12,-11 17,-16c4,-4 8,-7 10,-9c1,-1 1,0 -1,2c-3,3 -5.14773,5.94341 -7,11c-2.17538,5.93866 -2.57467,11.01509 -3,17c-0.50126,7.05328 -1,13 -1,18c0,5 0,10 0,14c0,2 0,4 0,5c0,1 -1,1 -2,1c-3,0 -6.22936,-0.33199 -10,-2c-3.29733,-1.45864 -5.70546,-3.34619 -8,-5c-1.81399,-1.30745 -3,-3 -3,-5c0,-4 2.86587,-8.2089 9,-12c6.85817,-4.23858 14.70177,-7.9422 26,-11c10.79208,-2.92081 20.95847,-4.49923 30,-5c7.98775,-0.4424 14.28912,-0.95131 19,1c3.3311,1.37978 4,4 4,6c0,4 -1.82285,8.18536 -6,12c-5.76727,5.26675 -10.76305,10.38055 -17,14c-5.80199,3.36703 -12.94341,6.14773 -18,8c-2.96933,1.08769 -6.58578,2.41422 -8,1c-1.41422,-1.41422 -1,-5 -1,-9c0,-5 -0.47472,-11.08442 1,-18c1.51831,-7.12002 3.14773,-12.94341 5,-18c2.17538,-5.93866 3.49622,-9.90779 4,-14c0.24437,-1.98502 0,-3 -1,-3c-1,0 -4,0 -8,2c-4,2 -8,4 -12,8c-4,4 -7.37135,7.74675 -10,12c-2.35114,3.80423 -4,7 -4,10c0,2 0,3 1,4c1,1 2.69344,1.4588 4,2c1.84776,0.76537 4,0 6,-1c2,-1 3.34619,-2.70546 5,-5c1.30745,-1.81399 3.51301,-4.594 5,-7c1.66251,-2.68999 2,-6 2,-8c0,-2 -1.01291,-3.83982 -2,-4c-3.12144,-0.50654 -7,-2 -12,-2c-6,0 -12.25406,1.35724 -18,4c-5.2975,2.4365 -9,7 -12,11c-3,4 -5.49346,7.87856 -6,11c-0.48055,2.96127 0.45049,5.45049 3,8c2.54951,2.54951 6.6475,3.97251 11,5c5.83949,1.37852 12.18143,1.33467 17,0c5.61938,-1.55648 10.2126,-4.67121 15,-8c5.25717,-3.65543 9.37135,-7.74674 12,-12c2.35114,-3.80423 2.48055,-9.03874 2,-12c-0.50654,-3.12144 -2.80901,-5.32144 -6,-7c-4.76599,-2.50706 -11.06456,-2.80091 -16,-2c-6.24289,1.01308 -12,4 -17,8c-5,4 -8,8 -11,12c-3,4 -4.49346,7.87856 -5,11c-0.32037,1.97417 0.797,3.2565 2,4c2.68999,1.66251 5.90779,2.49622 10,3c4.96254,0.61092 11.02044,0.49488 17,0c6.06203,-0.50171 12.19801,-2.63297 18,-6c6.23695,-3.61945 11.78637,-7.17866 16,-12c3.8371,-4.39051 5.49346,-8.87856 6,-12c0.48055,-2.96126 0.40601,-5.51301 -2,-7c-2.68999,-1.66251 -7.01704,-1.4124 -12,-1c-6.06203,0.50171 -12.86587,3.2089 -19,7c-6.85817,4.23858 -12,10 -16,15c-4,5 -7.95517,9.54916 -9,13c-0.86935,2.87128 -0.70711,5.29289 0,6c1.41422,1.41422 4,0 6,0c2,0 6,-1 9,-4c3,-3 6.37135,-6.74674 9,-11c3.52671,-5.70634 5.46552,-10.83809 7,-16c1.45295,-4.88763 1,-10 1,-14c0,-2 -1.82375,-3.48626 -4,-4c-2.91975,-0.68926 -6.0797,0.84797 -10,3c-5.11145,2.80591 -10.23171,7.77856 -15,13c-5.26675,5.76727 -8.77195,12.11955 -12,18c-2.80591,5.11144 -4.48626,8.82375 -5,11c-0.45951,1.9465 1,2 2,2c1,0 3.02997,0.48873 7,0c4.09221,-0.50378 9.23296,-3.58973 13,-6c5.39358,-3.45099 8.72962,-7.22885 13,-12c3.77267,-4.21508 8.44841,-8.80565 10,-13c1.4305,-3.867 1.76537,-8.15224 1,-10c-1.08239,-2.61312 -4.0146,-3.70439 -7,-4c-5.0742,-0.50245 -11.08744,-0.20607 -16,2c-6.11949,2.74805 -10.77978,6.19059 -16,12c-4.81977,5.36375 -9.19409,10.88855 -12,16c-2.15203,3.9203 -3.48626,6.82375 -4,9c-0.45951,1.9465 0.69344,2.4588 2,3c0.92388,0.38268 4,1 7,1c5,0 9.08744,0.20606 14,-2c4.07966,-1.83204 9.40401,-3.41156 14,-7c4.45876,-3.4813 8.88596,-7.27742 12,-12c2.96449,-4.49576 4.49346,-8.87856 5,-12c0.64073,-3.94835 -0.70546,-6.34619 -3,-8c-1.814,-1.30745 -5.02433,-2.49269 -10,-2c-5.0742,0.50245 -10.40968,3.52012 -14,7c-4.59786,4.45642 -7.82462,11.06134 -10,17c-1.85227,5.05659 -3,11 -3,14c0,3 1.066,5.87766 3,7c3.11848,1.80972 5.87856,3.49346 9,4c3.94835,0.64073 9.01947,0.39415 13,0c5.0742,-0.50245 9.19577,-2.64886 13,-5c4.25326,-2.62865 8.51929,-6.55819 11,-10c2.61491,-3.62798 3.49622,-7.90779 4,-12c0.48873,-3.97003 -1.13464,-8.81145 -4,-11c-2.51308,-1.91948 -7,-3 -12,-3c-5,0 -11.22273,1.72399 -15,5c-4.27349,3.70638 -7.37669,8.88732 -9,15c-1.30875,4.9282 -2,11 -2,15c0,3 0.70546,5.34619 3,7c1.81399,1.30745 4.90779,3.49622 9,4c2.97752,0.36655 8.02433,0.49269 13,0c5.0742,-0.50245 7.77636,-2.40894 13,-5c4.82428,-2.39297 9.46446,-4.46446 13,-8c3.53554,-3.53554 4.84723,-8.04132 6,-12c0.88413,-3.03617 1.29454,-6.34619 -1,-8c-1.814,-1.30745 -5.90778,-2.49623 -10,-3c-4.96254,-0.61092 -12.62001,-0.32502 -18,3c-4.812,2.97398 -8.95915,7.43547 -11,12c-2.08126,4.65492 -3,10 -3,13c0,4 0.41886,6.41886 2,8c1.58114,1.58114 3.93414,3.14429 6,4c2.92156,1.21015 5,2 8,2c3,0 6.12872,0.86935 9,0c3.45084,-1.04483 6.20681,-3.81266 8,-6c2.28588,-2.78832 3.49346,-5.87856 4,-9c0.64073,-3.94835 0.61491,-8.37202 -2,-12c-2.48071,-3.44181 -5.80565,-6.44841 -10,-8c-3.867,-1.4305 -9.2154,-1.88106 -15,0c-6.37939,2.07447 -11.41362,6.62531 -15,11c-4.57176,5.57665 -6.46552,10.83809 -8,16c-1.45295,4.88763 -2,9 -2,12c0,2 1,3 2,3c2,0 3,0 4,0c2,0 3.41886,0.58114 5,-1c1.58114,-1.58114 3.20681,-3.81266 5,-6c2.28588,-2.78832 4.54136,-6.70267 6,-10c1.66801,-3.77064 2.49346,-6.87856 3,-10c0.32037,-1.97417 -0.14935,-3.52573 -1,-3c-1.90211,1.17557 -4.07858,3.93813 -8,9c-3.06211,3.95265 -6.54863,8.76993 -8,13c-1.65482,4.82303 -2.49346,7.87856 -3,11c-0.32037,1.97417 0.07612,3.38268 1,3c1.30656,-0.5412 2,-2 3,-3c2,-2 4.11214,-4.9183 7,-9c2.08247,-2.94335 4.28859,-6.86829 6,-11c1.21015,-2.92156 3.49346,-5.87856 4,-9c0.32037,-1.97417 0.38268,-2.92388 0,-2c-1.08239,2.61313 -5.07612,6.61732 -6,7c-2.61312,1.08239 -3,3 -5,4c-2,1 -3,1 -4,1c-1,0 -1.70711,-1.29289 -1,-2c0.70711,-0.70711 2,-2 4,-3c2,-1 4.186,-2.69255 6,-4c1.14727,-0.8269 2,-2 3,-2l1,0l0,-1" id="svg_2" stroke-dasharray="2,2" stroke="#000" fill="none"/>
 </g>
</svg>