<?xml version="1.0" encoding="UTF-8"?>
<svg xmlns="http://www.w3.org/2000/svg" xmlns:xlink="http://www.w3.org/1999/xlink" width="80px" height="80px" viewBox="0 0 80 80" version="1.1">
<g id="surface1">
<path style=" stroke:none;fill-rule:nonzero;fill:rgb(0%,0%,0%);fill-opacity:1;" d="M 40.835938 72.066406 C 40.488281 72.023438 40.148438 71.867188 39.867188 71.597656 L 33.5625 65.46875 L 27.84375 71.664062 C 27.8125 71.707031 27.78125 71.742188 27.742188 71.78125 C 27.066406 72.488281 25.964844 72.488281 25.300781 71.78125 L 19.300781 65.460938 L 13.117188 71.664062 C 12.445312 72.34375 11.371094 72.328125 10.710938 71.628906 L 4.832031 65.375 L 3.605469 66.859375 C 3.292969 67.304688 2.785156 67.597656 2.21875 67.597656 C 1.257812 67.597656 0.492188 66.777344 0.492188 65.78125 L 0.492188 1.824219 C 0.492188 0.8125 1.257812 0 2.21875 0 L 65.203125 0 C 66.164062 0 66.929688 0.8125 66.929688 1.824219 L 66.929688 30.050781 L 63.476562 30.050781 L 63.476562 3.644531 L 3.945312 3.644531 L 3.945312 61.105469 C 4.558594 60.769531 5.324219 60.84375 5.878906 61.347656 C 5.910156 61.371094 5.941406 61.40625 5.976562 61.441406 L 11.976562 67.820312 L 18.148438 61.628906 C 18.828125 60.945312 19.898438 60.964844 20.558594 61.65625 L 20.566406 61.652344 L 26.515625 67.914062 L 32.273438 61.671875 C 32.925781 60.964844 33.992188 60.929688 34.675781 61.601562 L 40.835938 67.597656 Z M 49.054688 34.9375 L 77.027344 34.9375 C 77.710938 34.9375 78.335938 35.226562 78.785156 35.703125 L 78.835938 35.765625 C 79.253906 36.234375 79.507812 36.863281 79.507812 37.546875 L 79.507812 77.378906 C 79.507812 78.097656 79.234375 78.746094 78.785156 79.222656 L 78.777344 79.230469 C 78.328125 79.703125 77.710938 79.992188 77.027344 79.992188 L 49.054688 79.992188 C 48.371094 79.992188 47.75 79.703125 47.300781 79.230469 L 47.25 79.167969 C 46.832031 78.699219 46.570312 78.070312 46.570312 77.386719 L 46.570312 37.550781 C 46.570312 36.835938 46.851562 36.183594 47.300781 35.714844 L 47.304688 35.703125 C 47.75 35.238281 48.371094 34.9375 49.054688 34.9375 Z M 71.28125 42.554688 L 72.074219 42.554688 L 72.074219 47.085938 L 71.28125 47.085938 Z M 52.421875 53.972656 L 56.335938 53.972656 C 56.667969 53.972656 56.945312 54.265625 56.945312 54.617188 L 56.945312 58.089844 C 56.945312 58.441406 56.667969 58.734375 56.335938 58.734375 L 52.421875 58.734375 C 52.089844 58.734375 51.816406 58.441406 51.816406 58.089844 L 51.816406 54.617188 C 51.816406 54.265625 52.089844 53.972656 52.421875 53.972656 Z M 52.421875 70.492188 L 56.335938 70.492188 C 56.667969 70.492188 56.945312 70.785156 56.945312 71.136719 L 56.945312 74.613281 C 56.945312 74.960938 56.667969 75.253906 56.335938 75.253906 L 52.421875 75.253906 C 52.089844 75.253906 51.816406 74.960938 51.816406 74.613281 L 51.816406 71.136719 C 51.816406 70.785156 52.089844 70.492188 52.421875 70.492188 Z M 52.421875 62.234375 L 56.335938 62.234375 C 56.667969 62.234375 56.945312 62.523438 56.945312 62.878906 L 56.945312 66.347656 C 56.945312 66.703125 56.667969 66.992188 56.335938 66.992188 L 52.421875 66.992188 C 52.089844 66.992188 51.816406 66.703125 51.816406 66.347656 L 51.816406 62.878906 C 51.816406 62.523438 52.089844 62.234375 52.421875 62.234375 Z M 69.757812 53.972656 L 73.664062 53.972656 C 74 53.972656 74.273438 54.265625 74.273438 54.617188 L 74.273438 58.089844 C 74.273438 58.441406 73.992188 58.734375 73.664062 58.734375 L 69.757812 58.734375 C 69.421875 58.734375 69.144531 58.441406 69.144531 58.089844 L 69.144531 54.617188 C 69.144531 54.265625 69.414062 53.972656 69.757812 53.972656 Z M 69.757812 70.492188 L 73.664062 70.492188 C 74 70.492188 74.273438 70.785156 74.273438 71.136719 L 74.273438 74.613281 C 74.273438 74.960938 73.992188 75.253906 73.664062 75.253906 L 69.757812 75.253906 C 69.421875 75.253906 69.144531 74.960938 69.144531 74.613281 L 69.144531 71.136719 C 69.144531 70.785156 69.414062 70.492188 69.757812 70.492188 Z M 69.757812 62.234375 L 73.664062 62.234375 C 74 62.234375 74.273438 62.523438 74.273438 62.878906 L 74.273438 66.347656 C 74.273438 66.703125 73.992188 66.992188 73.664062 66.992188 L 69.757812 66.992188 C 69.421875 66.992188 69.144531 66.703125 69.144531 66.347656 L 69.144531 62.878906 C 69.144531 62.523438 69.414062 62.234375 69.757812 62.234375 Z M 61.085938 53.972656 L 64.996094 53.972656 C 65.332031 53.972656 65.609375 54.265625 65.609375 54.617188 L 65.609375 58.089844 C 65.609375 58.441406 65.332031 58.734375 64.996094 58.734375 L 61.085938 58.734375 C 60.753906 58.734375 60.476562 58.441406 60.476562 58.089844 L 60.476562 54.617188 C 60.476562 54.265625 60.753906 53.972656 61.085938 53.972656 Z M 61.085938 70.492188 L 64.996094 70.492188 C 65.332031 70.492188 65.609375 70.785156 65.609375 71.136719 L 65.609375 74.613281 C 65.609375 74.960938 65.332031 75.253906 64.996094 75.253906 L 61.085938 75.253906 C 60.753906 75.253906 60.476562 74.960938 60.476562 74.613281 L 60.476562 71.136719 C 60.476562 70.785156 60.753906 70.492188 61.085938 70.492188 Z M 61.085938 62.234375 L 64.996094 62.234375 C 65.332031 62.234375 65.609375 62.523438 65.609375 62.878906 L 65.609375 66.347656 C 65.609375 66.703125 65.332031 66.992188 64.996094 66.992188 L 61.085938 66.992188 C 60.753906 66.992188 60.476562 66.703125 60.476562 66.347656 L 60.476562 62.878906 C 60.476562 62.523438 60.753906 62.234375 61.085938 62.234375 Z M 51.914062 39.867188 L 74.175781 39.867188 C 74.515625 39.867188 74.816406 40.011719 75.035156 40.246094 L 75.085938 40.304688 C 75.28125 40.535156 75.394531 40.835938 75.394531 41.152344 L 75.394531 48.480469 C 75.394531 48.835938 75.261719 49.160156 75.035156 49.386719 C 74.816406 49.621094 74.507812 49.765625 74.175781 49.765625 L 51.914062 49.765625 C 51.570312 49.765625 51.269531 49.621094 51.046875 49.386719 L 50.996094 49.324219 C 50.804688 49.097656 50.6875 48.800781 50.6875 48.480469 L 50.6875 41.152344 C 50.6875 40.804688 50.820312 40.484375 51.046875 40.246094 C 51.269531 40.015625 51.574219 39.867188 51.914062 39.867188 Z M 74.011719 41.324219 L 52.070312 41.324219 L 52.070312 48.308594 L 74.011719 48.308594 Z M 77.027344 36.765625 L 49.054688 36.765625 C 48.851562 36.765625 48.664062 36.855469 48.519531 36.996094 C 48.386719 37.136719 48.304688 37.332031 48.304688 37.550781 L 48.304688 77.386719 C 48.304688 77.589844 48.371094 77.773438 48.488281 77.90625 L 48.519531 77.941406 C 48.65625 78.085938 48.839844 78.171875 49.050781 78.171875 L 77.023438 78.171875 C 77.226562 78.171875 77.414062 78.085938 77.550781 77.941406 C 77.683594 77.800781 77.769531 77.605469 77.769531 77.386719 L 77.769531 37.550781 C 77.769531 37.351562 77.695312 37.167969 77.582031 37.03125 L 77.550781 36.996094 C 77.421875 36.855469 77.234375 36.765625 77.027344 36.765625 Z M 10.914062 10.421875 L 24.925781 10.421875 L 24.925781 14.300781 L 20.21875 14.300781 L 20.21875 26.117188 L 15.617188 26.117188 L 15.617188 14.308594 L 10.90625 14.308594 L 10.90625 10.421875 Z M 34.753906 23.535156 L 29.527344 23.535156 L 28.785156 26.121094 L 24.085938 26.121094 L 29.699219 10.425781 L 34.742188 10.425781 L 40.328125 26.121094 L 35.503906 26.121094 Z M 33.773438 20.136719 L 32.148438 14.496094 L 30.511719 20.136719 Z M 40.757812 10.421875 L 45.839844 10.421875 L 48.480469 15.246094 L 51.046875 10.421875 L 56.0625 10.421875 L 51.433594 18.023438 L 56.5 26.117188 L 51.320312 26.117188 L 48.390625 21.070312 L 45.445312 26.117188 L 40.304688 26.117188 L 45.441406 17.941406 Z M 29.625 50.121094 C 30.335938 50.121094 30.898438 50.722656 30.898438 51.460938 C 30.898438 52.199219 30.328125 52.800781 29.625 52.800781 L 13.664062 52.800781 C 12.960938 52.800781 12.394531 52.199219 12.394531 51.460938 C 12.394531 50.714844 12.960938 50.121094 13.664062 50.121094 Z M 36.855469 41.1875 C 37.5625 41.1875 38.128906 41.789062 38.128906 42.527344 C 38.128906 43.273438 37.554688 43.871094 36.855469 43.871094 L 13.300781 43.871094 C 12.589844 43.871094 12.023438 43.269531 12.023438 42.527344 C 12.023438 41.785156 12.601562 41.1875 13.300781 41.1875 Z M 36.921875 32.242188 C 37.621094 32.242188 38.191406 32.84375 38.191406 33.582031 C 38.191406 34.328125 37.621094 34.925781 36.921875 34.925781 L 13.300781 34.925781 C 12.589844 34.925781 12.023438 34.324219 12.023438 33.582031 C 12.023438 32.839844 12.601562 32.242188 13.300781 32.242188 Z M 36.921875 32.242188 "/>
</g>
</svg>
